<svg width="72" height="72" viewBox="0 0 72 72" fill="none" xmlns="http://www.w3.org/2000/svg">
<path d="M63.5554 10.7077V62.8193C63.5554 64.1874 62.4479 65.2949 61.0798 65.2949H10.9747C9.60662 65.2949 8.4991 64.1874 8.4991 62.8193V59.575C7.16363 59.575 5.95189 59.0278 5.07889 58.1548C4.19294 57.2818 3.65869 56.0635 3.65869 54.728H8.4991V10.7077C8.4991 9.33957 9.60662 8.23206 10.9747 8.23206H61.0798C62.448 8.23206 63.5554 9.33957 63.5554 10.7077Z" fill="white"/>
<path d="M8.68927 58.9964C6.12819 58.9964 4.87813 55.9475 4.57324 54.423L54.4229 53.9657C55.3643 57.7312 57.4943 58.8503 58.851 58.9964H59.4536C59.28 59.0181 59.0761 59.0206 58.851 58.9964H8.68927Z" fill="#38BFF2"/>
<path d="M19.182 27.4402C17.0227 27.4402 15.2661 29.193 15.2661 31.3471C15.2661 33.5019 17.0227 35.2548 19.182 35.2548C21.3362 35.2548 23.0889 33.5019 23.0889 31.3471C23.0889 29.193 21.3362 27.4402 19.182 27.4402Z" fill="#38BFF2"/>
<path d="M19.182 27.4402C17.0227 27.4402 15.2661 29.193 15.2661 31.3471C15.2661 33.502 17.0227 35.2548 19.182 35.2548C21.3362 35.2548 23.0889 33.502 23.0889 31.3471C23.0889 29.193 21.3362 27.4402 19.182 27.4402ZM19.182 33.9518C17.7413 33.9518 16.5691 32.7831 16.5691 31.3471C16.5691 29.9112 17.7413 28.7431 19.182 28.7431C20.6179 28.7431 21.786 29.9112 21.786 31.3471C21.786 32.7831 20.6179 33.9518 19.182 33.9518Z" fill="#1A2E35"/>
<path d="M30.7528 27.4402C28.5935 27.4402 26.8369 29.193 26.8369 31.3471C26.8369 33.502 28.5935 35.2548 30.7528 35.2548C32.9073 35.2548 34.66 33.502 34.66 31.3471C34.6601 29.193 32.9073 27.4402 30.7528 27.4402Z" fill="#38BFF2"/>
<path d="M30.7528 27.4402C28.5935 27.4402 26.8369 29.193 26.8369 31.3471C26.8369 33.502 28.5935 35.2548 30.7528 35.2548C32.9073 35.2548 34.66 33.502 34.66 31.3471C34.6601 29.193 32.9073 27.4402 30.7528 27.4402ZM30.7528 33.9518C29.3121 33.9518 28.1399 32.7831 28.1399 31.3471C28.1399 29.9112 29.3121 28.7431 30.7528 28.7431C32.1887 28.7431 33.3571 29.9112 33.3571 31.3471C33.3571 32.7831 32.1887 33.9518 30.7528 33.9518Z" fill="#1A2E35"/>
<path d="M42.3246 27.5184C40.1653 27.5184 38.4087 29.2712 38.4087 31.4254C38.4087 33.5802 40.1653 35.333 42.3246 35.333C44.4791 35.333 46.2318 33.5802 46.2318 31.4254C46.2318 29.2712 44.4791 27.5184 42.3246 27.5184Z" fill="#38BFF2"/>
<path d="M42.3246 27.4402C40.1653 27.4402 38.4087 29.193 38.4087 31.3471C38.4087 33.502 40.1653 35.2548 42.3246 35.2548C44.4791 35.2548 46.2318 33.502 46.2318 31.3471C46.2318 29.193 44.4791 27.4402 42.3246 27.4402ZM42.3246 33.9518C40.8839 33.9518 39.7117 32.7831 39.7117 31.3471C39.7117 29.9112 40.8839 28.7431 42.3246 28.7431C43.7605 28.7431 44.9289 29.9112 44.9289 31.3471C44.9288 32.7831 43.7605 33.9518 42.3246 33.9518Z" fill="#1A2E35"/>
<path d="M53.8958 35.2548C56.0504 35.2548 57.8031 33.502 57.8031 31.3471C57.8031 29.1929 56.0503 27.4402 53.8958 27.4402C51.7366 27.4402 49.98 29.193 49.98 31.3471C49.98 33.502 51.7366 35.2548 53.8958 35.2548Z" fill="#38BFF2"/>
<path d="M53.8958 35.2548C56.0504 35.2548 57.8031 33.502 57.8031 31.3471C57.8031 29.1929 56.0503 27.4402 53.8958 27.4402C51.7366 27.4402 49.98 29.193 49.98 31.3471C49.98 33.502 51.7366 35.2548 53.8958 35.2548ZM53.8958 28.7432C55.3318 28.7432 56.5002 29.9113 56.5002 31.3473C56.5002 32.7832 55.3318 33.9519 53.8958 33.9519C52.4552 33.9519 51.283 32.7832 51.283 31.3473C51.283 29.9112 52.4552 28.7432 53.8958 28.7432Z" fill="#1A2E35"/>
<path d="M19.182 38.4163C17.0227 38.4163 15.2661 40.1691 15.2661 42.3239C15.2661 44.4782 17.0227 46.2308 19.182 46.2308C21.3362 46.2308 23.0889 44.478 23.0889 42.3239C23.0889 40.1691 21.3362 38.4163 19.182 38.4163Z" fill="#38BFF2"/>
<path d="M19.182 38.4163C17.0227 38.4163 15.2661 40.1691 15.2661 42.3239C15.2661 44.4782 17.0227 46.2308 19.182 46.2308C21.3362 46.2308 23.0889 44.478 23.0889 42.3239C23.0889 40.1691 21.3362 38.4163 19.182 38.4163ZM19.182 44.9278C17.7413 44.9278 16.5691 43.7597 16.5691 42.3238C16.5691 40.8878 17.7413 39.7191 19.182 39.7191C20.6179 39.7191 21.786 40.8878 21.786 42.3238C21.786 43.7597 20.6179 44.9278 19.182 44.9278Z" fill="#1A2E35"/>
<path d="M30.7528 38.4163C28.5935 38.4163 26.8369 40.1691 26.8369 42.3239C26.8369 44.4782 28.5935 46.2308 30.7528 46.2308C32.9073 46.2308 34.66 44.478 34.66 42.3239C34.6601 40.1691 32.9073 38.4163 30.7528 38.4163Z" fill="#38BFF2"/>
<path d="M30.7528 38.4163C28.5935 38.4163 26.8369 40.1691 26.8369 42.3239C26.8369 44.4782 28.5935 46.2308 30.7528 46.2308C32.9073 46.2308 34.66 44.478 34.66 42.3239C34.6601 40.1691 32.9073 38.4163 30.7528 38.4163ZM30.7528 44.9278C29.3121 44.9278 28.1399 43.7597 28.1399 42.3238C28.1399 40.8878 29.3121 39.7191 30.7528 39.7191C32.1887 39.7191 33.3571 40.8878 33.3571 42.3238C33.3571 43.7597 32.1887 44.9278 30.7528 44.9278Z" fill="#1A2E35"/>
<path d="M42.3245 38.4163C40.1653 38.4163 38.4087 40.1691 38.4087 42.3239C38.4087 44.4782 40.1653 46.2308 42.3245 46.2308C44.4791 46.2308 46.2318 44.478 46.2318 42.3239C46.2318 40.1691 44.4791 38.4163 42.3245 38.4163ZM42.3245 44.9278C40.8839 44.9278 39.7117 43.7597 39.7117 42.3238C39.7117 40.8878 40.8839 39.7191 42.3245 39.7191C43.7605 39.7191 44.9289 40.8878 44.9289 42.3238C44.9289 43.7597 43.7605 44.9278 42.3245 44.9278Z" fill="#1A2E35"/>
<path d="M57.8031 42.3239C57.8031 40.1691 56.0503 38.4163 53.8958 38.4163C51.7366 38.4163 49.98 40.1691 49.98 42.3239C49.98 44.4782 51.7366 46.2308 53.8958 46.2308C56.0504 46.2308 57.8031 44.478 57.8031 42.3239ZM53.8958 44.9278C52.4552 44.9278 51.283 43.7597 51.283 42.3238C51.283 40.8878 52.4552 39.7191 53.8958 39.7191C55.3318 39.7191 56.5002 40.8878 56.5002 42.3238C56.5002 43.7597 55.3318 44.9278 53.8958 44.9278Z" fill="#1A2E35"/>
<path d="M61.5862 7.01794H56.3575V3.49335C56.3575 3.13329 56.0659 2.84192 55.7061 2.84192C55.3463 2.84192 55.0547 3.13329 55.0547 3.49335V7.01794H16.4587V3.49335C16.4587 3.13329 16.1671 2.84192 15.8073 2.84192C15.4475 2.84192 15.1558 3.13329 15.1558 3.49335V7.01794H11.4827C9.75861 7.01794 8.3561 8.42072 8.3561 10.145C8.35583 15.8752 8.35415 53.2717 8.35415 53.516H4.16364C3.80386 53.516 3.51221 53.8074 3.51221 54.1674C3.51221 57.0601 5.69629 59.306 8.35401 59.6198V62.2568C8.35401 63.9809 9.7568 65.3838 11.481 65.3838H61.5863C63.3104 65.3838 64.7133 63.981 64.7133 62.2568C64.7133 50.7671 64.7133 21.0516 64.7133 10.145C64.7132 8.42072 63.3104 7.01794 61.5862 7.01794ZM11.4826 8.32095H15.1557V13.4908C15.1557 13.8508 15.4474 14.1422 15.8071 14.1422C16.1669 14.1422 16.4586 13.8508 16.4586 13.4908V8.32095H55.0545V13.4908C55.0545 13.8508 55.3462 14.1422 55.706 14.1422C56.0657 14.1422 56.3574 13.8508 56.3574 13.4908V8.32095H61.586C62.5918 8.32095 63.41 9.13918 63.41 10.145V18.66H9.65884V10.1448C9.65884 9.13904 10.4771 8.32095 11.4826 8.32095ZM9.65703 19.9635H63.4103V54.1655C63.4103 56.4779 61.5324 58.3592 59.2237 58.3604C59.2216 58.3604 59.2201 58.3593 59.218 58.3593C56.9031 58.3593 55.026 56.4832 55.026 54.1673C55.026 53.8072 54.7343 53.5158 54.3745 53.5158H9.65703V19.9635ZM4.86469 54.8189H53.7611C53.9243 56.2063 54.6051 57.4576 55.666 58.3593H9.0074C6.89786 58.3593 5.16985 56.8053 4.86469 54.8189ZM63.4102 62.2568C63.4102 63.2626 62.592 64.0808 61.5862 64.0808H11.481C10.4753 64.0808 9.65703 63.2627 9.65703 62.2568V59.6636H59.2212C60.8995 59.6636 62.4022 58.9042 63.4103 57.7128V62.2568H63.4102Z" fill="#1A2E35"/>
</svg>
