<svg width="70" height="61" viewBox="0 0 70 61" fill="none" xmlns="http://www.w3.org/2000/svg">
<path d="M68.5566 3.65996V39.2405H0.72168V3.65996C0.72168 2.04235 2.0134 0.732178 3.60822 0.732178H65.6701C67.2649 0.732039 68.5566 2.04235 68.5566 3.65996Z" fill="white"/>
<path d="M0.72168 39.2415V45.7815C0.72168 47.3986 2.01408 48.7093 3.60822 48.7093H65.6701C67.2643 48.7093 68.5566 47.3984 68.5566 45.7815V39.2415H0.72168Z" fill="#38BFF2"/>
<path d="M27.0688 48.7094H42.2088V55.5991H27.0688V48.7094Z" fill="#D7E9FF"/>
<path d="M48.2781 56.4514L50.0825 58.2723C50.5389 58.7328 50.2173 59.5231 49.5735 59.5231H19.7045C19.0607 59.5231 18.7392 58.7328 19.1955 58.2723L21 56.4514C21.5408 55.9056 22.2728 55.5991 23.0358 55.5991H46.2421C47.0052 55.5991 47.7372 55.9056 48.2781 56.4514Z" fill="#38BFF2"/>
<path d="M34.6392 45.4319C35.4324 45.4319 36.0753 44.7797 36.0753 43.9753C36.0753 43.1708 35.4324 42.5187 34.6392 42.5187C33.8461 42.5187 33.2031 43.1708 33.2031 43.9753C33.2031 44.7797 33.8461 45.4319 34.6392 45.4319Z" fill="#D7E9FF"/>
<path d="M69.2784 3.65983C69.2784 1.64188 67.6596 0 65.6701 0H3.60828C1.61875 0 0 1.64188 0 3.65983V45.7818C0 47.7998 1.61875 49.4417 3.60828 49.4417H26.3473V54.8671H23.0357C22.0752 54.8671 21.1717 55.2459 20.4917 55.9329L18.6869 57.7535C17.7762 58.6725 18.4187 60.2553 19.7045 60.2553H49.5739C50.859 60.2553 51.5029 58.6732 50.5915 57.7535L48.7867 55.9329C48.1067 55.2452 47.2032 54.8671 46.2426 54.8671H42.931V49.4417H65.6701C67.6596 49.4417 69.2784 47.7998 69.2784 45.7818C69.2784 30.8194 69.2784 19.699 69.2784 3.65983ZM1.44334 3.65983C1.44334 2.44895 2.41445 1.46396 3.60828 1.46396H65.6701C66.8639 1.46396 67.835 2.44895 67.835 3.65983V38.5086H1.44334V3.65983ZM47.7684 56.9699C47.7691 56.9706 47.7691 56.9706 47.7691 56.9706L49.5739 58.7912H19.7045L21.51 56.9699C21.9181 56.5582 22.4599 56.3309 23.0357 56.3309H46.2426C46.8184 56.3309 47.3603 56.5582 47.7684 56.9699ZM41.4878 54.8669H27.7905V49.4415H41.4878V54.8669ZM67.835 45.7818C67.835 46.9927 66.8639 47.9777 65.6701 47.9777C44.971 47.9777 24.258 47.9777 3.60828 47.9777C2.41445 47.9777 1.44334 46.9927 1.44334 45.7818V39.9733H67.835V45.7818Z" fill="#1A2E35"/>
<path d="M34.6389 46.1642C35.8285 46.1642 36.7969 45.1821 36.7969 43.9755C36.7969 42.769 35.8287 41.7867 34.6389 41.7867C33.4493 41.7867 32.481 42.7688 32.481 43.9755C32.481 45.1821 33.4493 46.1642 34.6389 46.1642ZM34.6389 43.2507C35.0328 43.2507 35.3536 43.5759 35.3536 43.9755C35.3536 44.375 35.0329 44.7004 34.6389 44.7004C34.2449 44.7004 33.9243 44.3752 33.9243 43.9755C33.9243 43.5759 34.245 43.2507 34.6389 43.2507Z" fill="#1A2E35"/>
<path d="M55.7057 8.62756H7.36076C6.96181 8.62756 6.63916 8.95497 6.63916 9.35947C6.63916 9.76398 6.96195 10.0914 7.36076 10.0914H55.7057C56.1046 10.0914 56.4273 9.76398 56.4273 9.35947C56.4273 8.95497 56.1045 8.62756 55.7057 8.62756Z" fill="#1A2E35"/>
<path d="M55.7057 13.6276H7.36076C6.96181 13.6276 6.63916 13.955 6.63916 14.3595C6.63916 14.764 6.96195 15.0914 7.36076 15.0914H55.7057C56.1046 15.0914 56.4273 14.764 56.4273 14.3595C56.4273 13.955 56.1045 13.6276 55.7057 13.6276Z" fill="#1A2E35"/>
<path d="M45.7057 18.6276H7.36076C6.96181 18.6276 6.63916 18.955 6.63916 19.3595C6.63916 19.764 6.96195 20.0914 7.36076 20.0914H45.7057C46.1046 20.0914 46.4273 19.764 46.4273 19.3595C46.4273 18.955 46.1045 18.6276 45.7057 18.6276Z" fill="#1A2E35"/>
<path d="M35.7057 23.6276H7.36076C6.96181 23.6276 6.63916 23.955 6.63916 24.3595C6.63916 24.764 6.96195 25.0914 7.36076 25.0914H35.7057C36.1046 25.0914 36.4273 24.764 36.4273 24.3595C36.4273 23.955 36.1045 23.6276 35.7057 23.6276Z" fill="#1A2E35"/>
<path d="M25.7057 28.6276H7.36076C6.96181 28.6276 6.63916 28.955 6.63916 29.3595C6.63916 29.764 6.96195 30.0914 7.36076 30.0914H25.7057C26.1046 30.0914 26.4273 29.764 26.4273 29.3595C26.4273 28.955 26.1045 28.6276 25.7057 28.6276Z" fill="#1A2E35"/>
</svg>
