<svg width="64" height="57" viewBox="0 0 64 57" fill="none" xmlns="http://www.w3.org/2000/svg">
<path d="M6 0.75H43.3271C46.2265 0.750122 48.5771 3.10058 48.5771 6V34.5576C48.5771 37.457 46.2265 39.8075 43.3271 39.8076H19.4189C17.7035 39.8076 16.0127 40.2181 14.4883 41.0049L2.57324 47.1543C1.74127 47.5837 0.75 46.9802 0.75 46.0439V6C0.75 3.10051 3.1005 0.75 6 0.75Z" fill="white" stroke="#263238" stroke-width="1.5"/>
<path d="M51.7265 13.1538H56.481C59.7947 13.1538 62.481 15.8401 62.481 19.1538V48.6205V53.4776C62.481 55.03 60.7893 55.9905 59.4561 55.195L50.8054 50.0331C49.256 49.1086 47.4854 48.6205 45.6812 48.6205H27.2457C24.3062 48.6205 21.9233 46.2375 21.9233 43.298" stroke="#263238" stroke-width="1.5"/>
<rect x="10.2114" y="12.4038" width="30" height="3.69231" rx="1.84615" fill="#38BFF2" stroke="#263238" stroke-width="1.5"/>
<rect x="10.2114" y="20.0769" width="23.4231" height="3.69231" rx="1.84615" fill="#38BFF2" stroke="#263238" stroke-width="1.5"/>
</svg>
